<svg xmlns="http://www.w3.org/2000/svg" fill="none" viewBox="0 0 16 17">
    <g fill="currentColor" fill-rule="evenodd">
        <path d="M3.333 4.127a.673.673 0 0 0-.673.673v7.333a.674.674 0 0 0 .673.674H8a.66.66 0 0 1 0 1.32H3.333a1.993 1.993 0 0 1-1.993-1.994V4.8a1.993 1.993 0 0 1 1.993-1.993H6A.66.66 0 0 1 6.467 3l1.806 1.807h4.394A1.994 1.994 0 0 1 14.66 6.8v2.333a.66.66 0 0 1-1.32 0V6.8a.674.674 0 0 0-.673-.673H8a.66.66 0 0 1-.467-.194L5.727 4.127H3.333ZM10.007 13.467a.66.66 0 0 1 .66-.66h4a.66.66 0 0 1 0 1.32h-4a.66.66 0 0 1-.66-.66Z"/>
        <path d="M12.667 10.807a.66.66 0 0 1 .66.66v4a.66.66 0 0 1-1.32 0v-4a.66.66 0 0 1 .66-.66Z"/>
    </g>
</svg>
