<svg xmlns="http://www.w3.org/2000/svg" fill="none" viewBox="0 0 16 16">
    <path fill="currentColor" fill-rule="evenodd"
          d="M1.333 4c0-.368.299-.667.667-.667h12a.667.667 0 1 1 0 1.334H2A.667.667 0 0 1 1.333 4Z"
          clip-rule="evenodd"/>
    <path fill="currentColor" fill-rule="evenodd"
          d="M6.667 2A.667.667 0 0 0 6 2.667V4a.667.667 0 0 1-1.333 0V2.667a2 2 0 0 1 2-2h2.666a2 2 0 0 1 2 2V4A.667.667 0 0 1 10 4V2.667A.667.667 0 0 0 9.333 2H6.667ZM3.333 3.333c.369 0 .667.299.667.667v9.333a.667.667 0 0 0 .667.667h6.666a.667.667 0 0 0 .667-.667V4a.667.667 0 0 1 1.333 0v9.333a2 2 0 0 1-2 2H4.667a2 2 0 0 1-2-2V4c0-.368.298-.667.666-.667Z"
          clip-rule="evenodd"/>
    <path fill="currentColor" fill-rule="evenodd"
          d="M6.667 6.667c.368 0 .666.298.666.666v4a.667.667 0 1 1-1.333 0v-4c0-.368.298-.666.667-.666ZM9.333 6.667c.369 0 .667.298.667.666v4a.667.667 0 0 1-1.333 0v-4c0-.368.298-.666.666-.666Z"
          clip-rule="evenodd"/>
</svg>
