<svg xmlns="http://www.w3.org/2000/svg" fill="none" viewBox="0 0 53 54">
    <path stroke="currentColor" stroke-linecap="round" stroke-linejoin="round" stroke-width="3.279"
          d="M33.057 18.257h.022M15.57 7.328h24.045a6.558 6.558 0 0 1 6.557 6.557V37.93m-1.87 6.774a6.537 6.537 0 0 1-4.687 1.97h-26.23a6.557 6.557 0 0 1-6.557-6.558v-26.23c0-1.847.762-3.515 1.989-4.706"/>
    <path stroke="currentColor" stroke-linecap="round" stroke-linejoin="round" stroke-width="3.279"
          d="m6.828 35.743 10.929-10.929c2.028-1.952 4.529-1.952 6.557 0l10.93 10.93m.721-8.005c1.254-.118 2.524.363 3.65 1.447l6.557 6.557M6.828 7.328l39.344 39.345"/>
</svg>
