<svg xmlns="http://www.w3.org/2000/svg" fill="none" viewBox="0 0 16 17">
    <path stroke="currentColor" stroke-linecap="round" stroke-linejoin="round" stroke-width="1.336"
          d="M2.667 4.133a.667.667 0 0 1 .666-.666H6a.667.667 0 0 1 .667.666V6.8A.667.667 0 0 1 6 7.467H3.333a.667.667 0 0 1-.666-.667V4.133ZM9.333 4.133A.667.667 0 0 1 10 3.467h2.667a.667.667 0 0 1 .666.666V6.8a.667.667 0 0 1-.666.667H10a.667.667 0 0 1-.667-.667V4.133ZM2.667 10.8a.667.667 0 0 1 .666-.667H6a.667.667 0 0 1 .667.667v2.667a.667.667 0 0 1-.667.666H3.333a.667.667 0 0 1-.666-.666V10.8ZM9.333 10.8a.667.667 0 0 1 .667-.667h2.667a.667.667 0 0 1 .666.667v2.667a.667.667 0 0 1-.666.666H10a.667.667 0 0 1-.667-.666V10.8Z"/>
</svg>
