<svg xmlns="http://www.w3.org/2000/svg" fill="none" viewBox="0 0 16 16">
    <path fill="currentColor" fill-rule="evenodd"
          d="M10.023 2.64a2.554 2.554 0 0 1 2.783 4.166l-7 7a.668.668 0 0 1-.473.195H2.667a.668.668 0 0 1-.668-.668v-2.666c0-.178.07-.347.195-.473l7-7c.237-.237.519-.425.829-.553ZM11 3.783a1.218 1.218 0 0 0-.861.357l-6.804 6.804v1.722h1.722l6.804-6.804A1.219 1.219 0 0 0 11 3.782Z"
          clip-rule="evenodd"/>
    <path fill="currentColor" fill-rule="evenodd"
          d="M8.528 3.86c.26-.26.684-.26.944 0l2.667 2.668a.668.668 0 1 1-.945.944L8.528 4.806a.668.668 0 0 1 0-.945Z"
          clip-rule="evenodd"/>
</svg>
