<svg xmlns="http://www.w3.org/2000/svg" fill="none" viewBox="0 0 16 17">
    <path fill="currentColor" fill-rule="evenodd"
          d="M9.333 2.133c.369 0 .667.299.667.667v2.667h2.667a.667.667 0 1 1 0 1.333H10a1.333 1.333 0 0 1-1.333-1.333V2.8c0-.368.298-.667.666-.667Z"
          clip-rule="evenodd"/>
    <path fill="currentColor" fill-rule="evenodd"
          d="M4.667 3.467A.667.667 0 0 0 4 4.133v9.334a.667.667 0 0 0 .667.666h6.666a.667.667 0 0 0 .667-.666V6.409L9.057 3.467h-4.39Zm-1.414-.748a2 2 0 0 1 1.414-.586h4.666c.177 0 .347.07.472.196l3.333 3.333a.667.667 0 0 1 .195.471v7.334a2 2 0 0 1-2 2H4.667a2 2 0 0 1-2-2V4.133a2 2 0 0 1 .586-1.414Z"
          clip-rule="evenodd"/>
    <path fill="currentColor" fill-rule="evenodd"
          d="M8 7.467c.368 0 .667.298.667.666v4a.667.667 0 1 1-1.334 0v-4c0-.368.299-.666.667-.666Z"
          clip-rule="evenodd"/>
    <path fill="currentColor" fill-rule="evenodd"
          d="M7.529 7.662c.26-.26.682-.26.942 0l2 2a.667.667 0 1 1-.942.943L8 9.076l-1.529 1.529a.667.667 0 1 1-.942-.943l2-2Z"
          clip-rule="evenodd"/>
</svg>
